<?xml version="1.0" encoding="UTF-8"?><svg id="Calque_2" xmlns="http://www.w3.org/2000/svg" viewBox="0 0 590.52 366.09"><defs><style>.cls-1{fill:#c49a6c;}.cls-2{fill:#2f2d59;}.cls-3{fill:#911329;}.cls-4{fill:#034ea2;}</style></defs><g id="Logo_définitif"><g><g><path class="cls-1" d="M364.15,362.15c-.72,0-1.35,.4-1.69,.98H228.06c-.34-.58-.97-.98-1.69-.98-1.08,0-1.97,.88-1.97,1.97s.88,1.97,1.97,1.97c.72,0,1.35-.4,1.69-.98h134.4c.34,.58,.97,.98,1.69,.98,1.08,0,1.97-.88,1.97-1.97s-.88-1.97-1.97-1.97Z"/><path class="cls-1" d="M470.43,348.97c-.72,0-1.35,.4-1.69,.98H121.78c-.34-.58-.97-.98-1.69-.98-1.08,0-1.97,.88-1.97,1.97s.88,1.97,1.97,1.97c.72,0,1.35-.4,1.69-.98H468.74c.34,.58,.97,.98,1.69,.98,1.08,0,1.97-.88,1.97-1.97s-.88-1.97-1.97-1.97Z"/><g><path class="cls-1" d="M308.34,336.33c-.9,0-1.63,.73-1.63,1.63s.73,1.63,1.63,1.63,1.63-.73,1.63-1.63-.73-1.63-1.63-1.63Z"/><circle class="cls-1" cx="295.16" cy="337.96" r="1.63"/><circle class="cls-1" cx="281.99" cy="337.96" r="1.63"/></g><g><circle class="cls-1" cx="379.41" cy="364.12" r="1.63"/><path class="cls-1" d="M392.58,362.49c-.9,0-1.63,.73-1.63,1.63s.73,1.63,1.63,1.63,1.63-.73,1.63-1.63-.73-1.63-1.63-1.63Z"/><circle class="cls-1" cx="405.76" cy="364.12" r="1.63"/></g><g><circle class="cls-1" cx="184.89" cy="364.12" r="1.63"/><path class="cls-1" d="M198.06,362.49c-.9,0-1.63,.73-1.63,1.63s.73,1.63,1.63,1.63,1.63-.73,1.63-1.63-.73-1.63-1.63-1.63Z"/><circle class="cls-1" cx="211.24" cy="364.12" r="1.63"/></g></g><g><path class="cls-1" d="M372.24,86.46c.84-2.86,1.26-5.87,1.26-8.92,0-17.82-14.5-32.31-32.32-32.31-.8,0-1.65,.04-2.61,.11-6.31-18.67-23.65-31.26-43.42-31.42-19.77,.16-37.09,12.73-43.42,31.42-.94-.07-1.79-.11-2.61-.11-17.83,0-32.32,14.49-32.32,32.31,0,3.05,.43,6.06,1.26,8.92-9.24,3.67-15.18,12.46-15.18,22.44,0,2.22,.32,4.47,.94,6.62l.16,.55,.52,.14c11.82,3.1,23.26,7.62,34.06,13.44,13.72,7.37,26.27,16.72,37.25,27.82-3.87,4.29-6.17,9.78-6.53,15.56-.92,14.26,9.93,26.62,24.22,27.54,.55,.05,1.1,.07,1.67,.07,13.53,0,24.98-10.57,25.87-24.29,.44-6.93-1.92-13.74-6.51-18.9,10.99-11.08,23.51-20.43,37.2-27.8,10.8-5.82,22.27-10.34,34.06-13.44l.55-.14,.14-.55c.62-2.15,.94-4.4,.94-6.62,0-9.98-5.94-18.77-15.18-22.44Zm-33.49-39.03l.05-.07,.06-.07c.85-.05,1.61-.09,2.32-.09,16.74,0,30.35,13.62,30.35,30.34,0,3.14-.46,6.24-1.43,9.22-.02,.05-.02,.07-.02,.09v.03c-2.64,1.28-5.23,2.63-7.8,4.08-.09,.05-.16,.09-.25,.14-2.55,1.44-5.07,2.96-7.55,4.54-5.2,3.32-10.23,6.95-15.02,10.87l-1.81,1.49c-14.08,11.84-25.92,25.9-35.16,41.81-1.79-.52-3.7-.87-5.67-1.01-.23-.02-.46-.02-.69-.02v-4.68c.6-8.12,1.77-16.14,3.6-24.03,1.17-5.1,2.6-10.14,4.29-15.12,2.11-6.31,4.73-12.64,7.78-18.83,.07-.14,.16-.3,.23-.44,5.6-11.3,12.54-21.85,20.69-31.49,1.95-2.31,3.94-4.56,6.03-6.76Zm-43.6-31.54c19.1,.14,35.87,12.45,41.74,30.62-.98,1.05-1.92,2.13-2.89,3.19-.27,.32-.57,.62-.85,.94-.8,.92-1.6,1.88-2.38,2.82-.51,.6-1.03,1.19-1.54,1.81-.57,.71-1.12,1.42-1.67,2.16-.67,.85-1.36,1.69-2.02,2.57-.41,.55-.8,1.12-1.22,1.67-.75,1.06-1.53,2.09-2.27,3.17-.37,.52-.71,1.07-1.08,1.6-.73,1.1-1.49,2.18-2.2,3.3-.64,.99-1.24,2-1.83,3.01-.42,.66-.85,1.33-1.24,1.99-2.02,3.44-3.9,6.93-5.67,10.51-1.53,3.1-2.96,6.26-4.29,9.45-1.3,3.21-2.52,6.42-3.6,9.63-.75,2.2-1.42,4.43-2.06,6.65-.14,.46-.28,.92-.41,1.38-1.26,4.49-2.32,9.06-3.17,13.67-.09,.41-.16,.85-.25,1.28-.41,2.32-.78,4.66-1.1,7.02-.05-.27-.07-.57-.12-.85-.18-1.35-.39-2.73-.62-4.08-.04-.34-.11-.71-.18-1.05-.23-1.36-.48-2.71-.73-4.06-.03-.14-.05-.3-.1-.44-.32-1.63-.68-3.23-1.05-4.84-.32-1.38-.64-2.73-1.03-4.08-.16-.71-.37-1.42-.58-2.14-.18-.75-.39-1.49-.64-2.22-.2-.8-.43-1.56-.69-2.34-.09-.27-.16-.55-.25-.82-.3-1.04-.64-2.05-.98-3.08-.56-1.6-1.13-3.21-1.72-4.81-1.82-4.84-3.88-9.64-6.17-14.27-.44-.9-.9-1.79-1.36-2.66-.82-1.58-1.67-3.17-2.54-4.73-.58-1.05-1.17-2.11-1.79-3.14-.99-1.65-2-3.3-3.03-4.93-.55-.87-1.15-1.77-1.74-2.66-.58-.83-1.13-1.65-1.7-2.48-.78-1.12-1.56-2.25-2.39-3.35-.36-.5-.75-1.01-1.12-1.49-.11-.18-.28-.39-.44-.57-.82-1.12-1.69-2.23-2.59-3.3-.3-.39-.62-.81-.96-1.2-.83-1.03-1.68-2.04-2.55-3.02-.32-.39-.69-.81-1.03-1.2-1.17-1.35-2.41-2.68-3.65-4.01,5.9-18.17,22.64-30.48,41.75-30.62Zm-46.03,31.31c.73,0,1.49,.04,2.31,.09l.14,.16c.69,.71,1.35,1.44,2.02,2.18,1.17,1.24,2.29,2.5,3.35,3.78,.84,.97,1.67,1.95,2.47,2.94,1.24,1.54,2.46,3.07,3.65,4.66,1.19,1.55,2.34,3.16,3.46,4.77,4.5,6.46,8.51,13.25,12,20.34,1.65,3.37,3.21,6.81,4.61,10.32,1.15,2.82,2.2,5.67,3.16,8.51,2.14,6.31,3.88,12.78,5.19,19.34,.18,.87,.37,1.76,.5,2.63,.44,2.41,.83,4.82,1.15,7.23,.16,1.1,.3,2.18,.39,3.28,.27,2.22,.48,4.47,.64,6.72v4.63c-2.15,.05-4.29,.41-6.33,1.03-.64-1.12-1.31-2.22-1.99-3.32-.53-.87-1.06-1.72-1.61-2.55-1.24-1.95-2.52-3.87-3.83-5.75-.67-.92-1.33-1.84-2-2.73-.57-.81-1.14-1.56-1.74-2.34-.39-.51-.78-1.01-1.17-1.52-.41-.52-.85-1.05-1.26-1.58-.71-.89-1.42-1.77-2.18-2.64-1.47-1.76-2.96-3.46-4.52-5.14-1.49-1.62-3.02-3.23-4.61-4.81-.04-.07-.09-.12-.13-.14-1.59-1.61-3.22-3.16-4.89-4.68-1.72-1.58-3.46-3.12-5.25-4.63l-1.81-1.49c-2.37-1.93-4.78-3.79-7.25-5.58-1.22-.89-2.48-1.76-3.72-2.61-3.76-2.59-7.64-4.98-11.6-7.2-1.29-.74-2.6-1.45-3.93-2.14-1.35-.73-2.73-1.42-4.1-2.08-.02-.05-.02-.09-.05-.14-.94-2.96-1.42-6.06-1.42-9.2,0-16.72,13.62-30.34,30.35-30.34Zm-9.62,80.71c-10.78-5.78-22.17-10.32-33.94-13.46-.46-1.82-.71-3.7-.71-5.55,0-9.13,5.41-17.16,13.83-20.6h.02l.32,.16c10.85,5.28,21.15,11.86,30.58,19.56l1.79,1.47c2.66,2.23,5.23,4.54,7.7,6.93,.83,.78,1.65,1.58,2.46,2.41,3.12,3.09,6.05,6.33,8.87,9.68,1.45,1.72,2.87,3.46,4.22,5.23,.53,.64,1.01,1.3,1.49,1.97,2.87,3.81,5.53,7.77,8.03,11.86,.62,.96,1.19,1.92,1.74,2.89-3.23,1.23-6.23,3.14-8.73,5.59-11.13-11.24-23.79-20.71-37.67-28.14Zm79.57,48.33c-.85,13.18-12.27,23.23-25.46,22.38-13.19-.87-23.23-12.29-22.38-25.48,.34-5.28,2.43-10.32,5.96-14.27,.21-.27,.43-.52,.69-.78,.2-.23,.43-.45,.66-.64,2.39-2.34,5.28-4.15,8.4-5.25,.25-.12,.5-.18,.75-.28,.37-.13,.76-.25,1.15-.34,1.72-.48,3.49-.76,5.32-.8,.32-.05,.64-.05,.99-.05s.66,0,.98,.02c.19,0,.37,0,.55,.03,1.66,.11,3.26,.36,4.78,.8,.39,.09,.78,.21,1.16,.34,.26,.1,.51,.16,.76,.26,3.12,1.12,6.01,2.93,8.4,5.25,.23,.21,.46,.43,.66,.66,.23,.26,.48,.51,.71,.76,4.18,4.77,6.33,11.03,5.92,17.39Zm65.67-61.79c-11.75,3.14-23.17,7.68-33.93,13.46-13.87,7.45-26.53,16.88-37.66,28.12-2.52-2.43-5.52-4.34-8.76-5.57,9.08-15.58,20.71-29.34,34.52-40.94l1.81-1.5c9.41-7.68,19.7-14.26,30.58-19.56l.32-.16c8.41,3.44,13.83,11.47,13.83,20.6,0,1.85-.23,3.73-.71,5.55Z"/><path class="cls-2" d="M313.15,158.85c-.23-.25-.48-.5-.71-.76-.2-.23-.43-.45-.66-.66-2.39-2.32-5.28-4.13-8.4-5.25-.25-.1-.5-.16-.76-.26-.38-.13-.77-.25-1.16-.34-1.52-.44-3.12-.69-4.78-.8-.18-.03-.36-.03-.55-.03-.32-.02-.64-.02-.98-.02s-.67,0-.99,.05c-1.83,.04-3.6,.32-5.32,.8-.39,.09-.78,.21-1.15,.34-.25,.1-.5,.16-.75,.28-3.12,1.1-6.01,2.91-8.4,5.25-.23,.19-.46,.41-.66,.64-.26,.26-.48,.51-.69,.78-3.53,3.95-5.62,8.99-5.96,14.27-.85,13.19,9.19,24.61,22.38,25.48,13.19,.85,24.61-9.2,25.46-22.38,.41-6.36-1.74-12.62-5.92-17.39Zm-18,31.9c-8.86,0-16.08-7.2-16.08-16.05,0-3.65,1.24-7.16,3.49-9.98,.16-.23,.34-.46,.55-.69,.25-.27,.5-.55,.78-.8,.09-.09,.18-.2,.29-.27,.28-.28,.55-.51,.83-.74,.28-.23,.55-.43,.83-.62,.41-.29,.84-.59,1.3-.85,.37-.2,.74-.41,1.13-.57,.41-.21,.82-.39,1.26-.55,.3-.11,.57-.21,.87-.3,.09-.02,.21-.07,.32-.09,.41-.11,.83-.21,1.24-.3,.25-.04,.5-.09,.76-.11,.16-.03,.32-.05,.46-.07,.16-.02,.34-.05,.5-.07,.16,0,.32-.02,.48-.02,.67-.05,1.31-.07,1.97-.03,.21,.03,.42,.05,.62,.07,.14,.03,.3,.03,.46,.05,.14,0,.25,.02,.39,.04v.03c.25,.02,.51,.07,.76,.11,.41,.09,.82,.19,1.21,.3h.03c.87,.25,1.72,.57,2.52,.96,.28,.14,.55,.28,.83,.44,.45,.23,.89,.5,1.3,.8,.37,.25,.71,.51,1.04,.78,.34,.28,.66,.58,.98,.87,.32,.3,.62,.62,.92,.94,.21,.23,.39,.46,.55,.69,2.27,2.82,3.49,6.33,3.49,9.98,0,8.85-7.21,16.05-16.08,16.05Z"/><path class="cls-2" d="M385.46,108.89c0,1.85-.23,3.73-.71,5.55-11.75,3.14-23.17,7.68-33.93,13.46-13.87,7.45-26.53,16.88-37.66,28.12-2.52-2.43-5.52-4.34-8.76-5.57,9.08-15.58,20.71-29.34,34.52-40.94l1.81-1.5c9.41-7.68,19.7-14.26,30.58-19.56l.32-.16c8.41,3.44,13.83,11.47,13.83,20.6Z"/><path class="cls-4" d="M371.54,77.53c0,3.14-.46,6.24-1.43,9.22-.02,.05-.02,.07-.02,.09v.03c-2.64,1.28-5.23,2.63-7.8,4.08-.09,.05-.16,.09-.25,.14-2.55,1.44-5.07,2.96-7.55,4.54-5.2,3.32-10.23,6.95-15.02,10.87l-1.81,1.49c-14.08,11.84-25.92,25.9-35.16,41.81-1.79-.52-3.7-.87-5.67-1.01-.23-.02-.46-.02-.69-.02v-4.68c.6-8.12,1.77-16.14,3.6-24.03,1.17-5.1,2.6-10.14,4.29-15.12,2.11-6.31,4.73-12.64,7.78-18.83,.07-.14,.16-.3,.23-.44,5.6-11.3,12.54-21.85,20.69-31.49,1.95-2.31,3.94-4.56,6.03-6.76l.05-.07,.06-.07c.85-.05,1.61-.09,2.32-.09,16.74,0,30.35,13.62,30.35,30.34Z"/><path class="cls-2" d="M336.9,46.5c-.98,1.05-1.92,2.13-2.89,3.19-.27,.32-.57,.62-.85,.94-.8,.92-1.6,1.88-2.38,2.82-.51,.6-1.03,1.19-1.54,1.81-.57,.71-1.12,1.42-1.67,2.16-.67,.85-1.36,1.69-2.02,2.57-.41,.55-.8,1.12-1.22,1.67-.75,1.06-1.53,2.09-2.27,3.17-.37,.52-.71,1.07-1.08,1.6-.73,1.1-1.49,2.18-2.2,3.3-.64,.99-1.24,2-1.83,3.01-.42,.66-.85,1.33-1.24,1.99-2.02,3.44-3.9,6.93-5.67,10.51-1.53,3.1-2.96,6.26-4.29,9.45-1.3,3.21-2.52,6.42-3.6,9.63-.75,2.2-1.42,4.43-2.06,6.65-.14,.46-.28,.92-.41,1.38-1.26,4.49-2.32,9.06-3.17,13.67-.09,.41-.16,.85-.25,1.28-.41,2.32-.78,4.66-1.1,7.02-.05-.27-.07-.57-.12-.85-.18-1.35-.39-2.73-.62-4.08-.04-.34-.11-.71-.18-1.05-.23-1.36-.48-2.71-.73-4.06-.03-.14-.05-.3-.1-.44-.32-1.63-.68-3.23-1.05-4.84-.32-1.38-.64-2.73-1.03-4.08-.16-.71-.37-1.42-.58-2.14-.18-.75-.39-1.49-.64-2.22-.2-.8-.43-1.56-.69-2.34-.09-.27-.16-.55-.25-.82-.3-1.04-.64-2.05-.98-3.08-.56-1.6-1.13-3.21-1.72-4.81-1.82-4.84-3.88-9.64-6.17-14.27-.44-.9-.9-1.79-1.36-2.66-.82-1.58-1.67-3.17-2.54-4.73-.58-1.05-1.17-2.11-1.79-3.14-.99-1.65-2-3.3-3.03-4.93-.55-.87-1.15-1.77-1.74-2.66-.58-.83-1.13-1.65-1.7-2.48-.78-1.12-1.56-2.25-2.39-3.35-.36-.5-.75-1.01-1.12-1.49-.11-.18-.28-.39-.44-.57-.82-1.12-1.69-2.23-2.59-3.3-.3-.39-.62-.81-.96-1.2-.83-1.03-1.68-2.04-2.55-3.02-.32-.39-.69-.81-1.03-1.2-1.17-1.35-2.41-2.68-3.65-4.01,5.9-18.17,22.64-30.48,41.75-30.62,19.1,.14,35.87,12.45,41.74,30.62Z"/><path class="cls-4" d="M294.17,144.14v4.63c-2.15,.05-4.29,.41-6.33,1.03-.64-1.12-1.31-2.22-1.99-3.32-.53-.87-1.06-1.72-1.61-2.55-1.24-1.95-2.52-3.87-3.83-5.75-.67-.92-1.33-1.84-2-2.73-.57-.81-1.14-1.56-1.74-2.34-.39-.51-.78-1.01-1.17-1.52-.41-.52-.85-1.05-1.26-1.58-.71-.89-1.42-1.77-2.18-2.64-1.47-1.76-2.96-3.46-4.52-5.14-1.49-1.62-3.02-3.23-4.61-4.81-.04-.07-.09-.12-.13-.14-1.59-1.61-3.22-3.16-4.89-4.68-1.72-1.58-3.46-3.12-5.25-4.63l-1.81-1.49c-2.37-1.93-4.78-3.79-7.25-5.58-1.22-.89-2.48-1.76-3.72-2.61-3.76-2.59-7.64-4.98-11.6-7.2-1.29-.74-2.6-1.45-3.93-2.14-1.35-.73-2.73-1.42-4.1-2.08-.02-.05-.02-.09-.05-.14-.94-2.96-1.42-6.06-1.42-9.2,0-16.72,13.62-30.34,30.35-30.34,.73,0,1.49,.04,2.31,.09l.14,.16c.69,.71,1.35,1.44,2.02,2.18,1.17,1.24,2.29,2.5,3.35,3.78,.84,.97,1.67,1.95,2.47,2.94,1.24,1.54,2.46,3.07,3.65,4.66,1.19,1.55,2.34,3.16,3.46,4.77,4.5,6.46,8.51,13.25,12,20.34,1.65,3.37,3.21,6.81,4.61,10.32,1.15,2.82,2.2,5.67,3.16,8.51,2.14,6.31,3.88,12.78,5.19,19.34,.18,.87,.37,1.76,.5,2.63,.44,2.41,.83,4.82,1.15,7.23,.16,1.1,.3,2.18,.39,3.28,.27,2.22,.48,4.47,.64,6.72Z"/><path class="cls-2" d="M285.91,150.45c-3.23,1.23-6.23,3.14-8.73,5.59-11.13-11.24-23.79-20.71-37.67-28.14-10.78-5.78-22.17-10.32-33.94-13.46-.46-1.82-.71-3.7-.71-5.55,0-9.13,5.41-17.16,13.83-20.6h.02l.32,.16c10.85,5.28,21.15,11.86,30.58,19.56l1.79,1.47c2.66,2.23,5.23,4.54,7.7,6.93,.83,.78,1.65,1.58,2.46,2.41,3.12,3.09,6.05,6.33,8.87,9.68,1.45,1.72,2.87,3.46,4.22,5.23,.53,.64,1.01,1.3,1.49,1.97,2.87,3.81,5.53,7.77,8.03,11.86,.62,.96,1.19,1.92,1.74,2.89Z"/><path class="cls-1" d="M307.74,164.72c-.16-.23-.34-.46-.55-.69-.3-.32-.6-.64-.92-.94-.32-.29-.64-.59-.98-.87-.33-.27-.67-.53-1.04-.78-.41-.3-.85-.57-1.3-.8-.28-.16-.55-.3-.83-.44-.8-.39-1.65-.71-2.52-.96h-.03c-.39-.11-.8-.21-1.21-.3-.25-.04-.51-.09-.76-.11v-.03c-.14-.02-.25-.04-.39-.04-.16-.02-.32-.02-.46-.05-.2-.02-.41-.04-.62-.07-.66-.04-1.3-.02-1.97,.03-.16,0-.32,.02-.48,.02-.16,.02-.34,.05-.5,.07-.14,.02-.3,.04-.46,.07-.26,.02-.51,.07-.76,.11-.41,.09-.83,.19-1.24,.3-.11,.02-.23,.07-.32,.09-.3,.09-.57,.19-.87,.3-.44,.16-.85,.34-1.26,.55-.39,.16-.76,.37-1.13,.57-.46,.26-.89,.56-1.3,.85-.28,.19-.55,.39-.83,.62-.28,.23-.55,.46-.83,.74-.11,.07-.2,.18-.29,.27-.28,.25-.53,.53-.78,.8-.21,.23-.39,.46-.55,.69-2.25,2.82-3.49,6.33-3.49,9.98,0,8.85,7.22,16.05,16.08,16.05s16.08-7.2,16.08-16.05c0-3.65-1.22-7.16-3.49-9.98Zm-12.59,24.09c-7.78,0-14.11-6.33-14.11-14.11,0-3.46,1.26-6.77,3.56-9.36,2.06-2.31,4.75-3.87,7.75-4.47,.92-.18,1.88-.28,2.8-.28s1.88,.1,2.82,.28c3,.6,5.69,2.16,7.75,4.47,2.27,2.59,3.53,5.9,3.53,9.36,0,7.78-6.33,14.11-14.1,14.11Z"/><path class="cls-3" d="M309.25,174.7c0,7.78-6.33,14.11-14.1,14.11s-14.11-6.33-14.11-14.11c0-3.46,1.26-6.77,3.56-9.36,2.06-2.31,4.75-3.87,7.75-4.47,.92-.18,1.88-.28,2.8-.28s1.88,.1,2.82,.28c3,.6,5.69,2.16,7.75,4.47,2.27,2.59,3.53,5.9,3.53,9.36Z"/><g><circle class="cls-1" cx="281.99" cy="4.04" r="1.63"/><circle class="cls-1" cx="295.16" cy="1.63" r="1.63"/><path class="cls-1" d="M308.34,2.4c-.9,0-1.63,.73-1.63,1.63s.73,1.63,1.63,1.63,1.63-.73,1.63-1.63-.73-1.63-1.63-1.63Z"/></g><path class="cls-1" d="M515.35,194.51h-191.01c-.54,0-.98-.44-.98-.98s.44-.98,.98-.98h191.01c.54,0,.98,.44,.98,.98s-.44,.98-.98,.98Z"/><path class="cls-1" d="M541.16,188.76c-1.27-1.3-2.96-2.02-4.77-2.05h-.05c-3.41,0-12.3,5.18-13.31,5.77l-1.4,.82,1.38,.87c.99,.62,9.81,6.07,13.2,6.12h.09c3.7,0,6.73-2.99,6.78-6.7,.03-1.81-.66-3.53-1.92-4.83Zm-4.86,9.55h-.07c-1.87-.02-7.1-2.77-10.76-4.96,3.79-2.13,9-4.67,10.89-4.67,1.29,.02,2.49,.54,3.39,1.46,.89,.92,1.38,2.14,1.36,3.42-.03,2.64-2.19,4.75-4.81,4.75Z"/><path class="cls-2" d="M541.11,193.56c-.03,2.64-2.19,4.75-4.81,4.75h-.07c-1.87-.02-7.1-2.77-10.76-4.96,3.79-2.13,9-4.67,10.89-4.67,1.29,.02,2.49,.54,3.39,1.46,.89,.92,1.38,2.14,1.36,3.42Z"/><path class="cls-1" d="M529.82,175.61c-.84-.46-1.75-.67-2.64-.67-1.98,0-3.9,1.05-4.9,2.9-1.31,2.39-.96,10.62-.91,11.55l.07,1.62,1.41-.82c.8-.47,7.9-4.64,9.2-7.04,1.46-2.69,.46-6.07-2.23-7.54Zm.49,6.6c-.66,1.22-4.22,3.69-7.03,5.42-.07-3.3,.07-7.63,.73-8.85,.94-1.73,3.13-2.38,4.87-1.43,1.73,.94,2.38,3.12,1.43,4.86Z"/><path class="cls-2" d="M530.31,182.21c-.66,1.22-4.22,3.69-7.03,5.42-.07-3.3,.07-7.63,.73-8.85,.94-1.73,3.13-2.38,4.87-1.43,1.73,.94,2.38,3.12,1.43,4.86Z"/><path class="cls-1" d="M532.05,203.45c-1.3-2.39-8.4-6.57-9.2-7.04l-1.41-.81-.07,1.62c-.02,.35-.08,1.72-.08,3.42,0,2.85,.17,6.63,.99,8.13,1,1.85,2.92,2.9,4.89,2.9,.9,0,1.81-.22,2.65-.68,1.3-.71,2.25-1.88,2.67-3.31,.43-1.42,.27-2.92-.44-4.23Zm-1.45,3.67c-.27,.92-.88,1.68-1.72,2.14-1.74,.95-3.93,.3-4.87-1.44-.66-1.22-.8-5.54-.73-8.84,2.81,1.73,6.37,4.19,7.03,5.41,.46,.85,.56,1.82,.29,2.73Z"/><path class="cls-2" d="M530.6,207.12c-.27,.92-.88,1.68-1.72,2.14-1.74,.95-3.93,.3-4.87-1.44-.66-1.22-.8-5.54-.73-8.84,2.81,1.73,6.37,4.19,7.03,5.41,.46,.85,.56,1.82,.29,2.73Z"/><path class="cls-1" d="M266.18,194.51H75.17c-.54,0-.98-.44-.98-.98s.44-.98,.98-.98h191.01c.54,0,.98,.44,.98,.98s-.44,.98-.98,.98Z"/><path class="cls-1" d="M67.49,192.48c-1-.59-9.89-5.77-13.31-5.77h-.04c-1.81,.03-3.51,.75-4.78,2.05-1.26,1.3-1.94,3.02-1.92,4.83,.05,3.71,3.09,6.7,6.79,6.7h.09c3.38-.05,12.2-5.5,13.2-6.12l1.37-.87-1.4-.82Zm-13.2,5.83c-2.62,0-4.84-2.09-4.88-4.75-.01-1.28,.47-2.5,1.37-3.42,.9-.92,2.1-1.44,3.38-1.46h.03c1.92,0,7.09,2.55,10.87,4.68-3.67,2.18-8.89,4.93-10.77,4.95Z"/><path class="cls-2" d="M65.06,193.36c-3.67,2.18-8.89,4.93-10.77,4.95-2.62,0-4.84-2.09-4.88-4.75-.01-1.28,.47-2.5,1.37-3.42,.9-.92,2.1-1.44,3.38-1.46h.03c1.92,0,7.09,2.55,10.87,4.68Z"/><path class="cls-1" d="M68.25,177.84c-1.47-2.69-4.85-3.69-7.54-2.23-2.7,1.47-3.7,4.85-2.23,7.54,1.3,2.4,8.39,6.57,9.2,7.04l1.4,.82,.08-1.62c.01-.35,.07-1.7,.07-3.38,0-2.86-.16-6.67-.98-8.17Zm-1.01,9.79c-2.81-1.73-6.37-4.2-7.03-5.42-.94-1.74-.3-3.92,1.44-4.86,.54-.3,1.13-.44,1.71-.44,1.27,0,2.51,.68,3.16,1.87,.66,1.22,.79,5.55,.72,8.85Z"/><path class="cls-2" d="M67.24,187.63c-2.81-1.73-6.37-4.2-7.03-5.42-.94-1.74-.3-3.92,1.44-4.86,.54-.3,1.13-.44,1.71-.44,1.27,0,2.51,.68,3.16,1.87,.66,1.22,.79,5.55,.72,8.85Z"/><path class="cls-1" d="M69.16,197.22l-.08-1.62-1.4,.81c-.81,.47-7.9,4.65-9.2,7.04-.71,1.31-.87,2.81-.45,4.23,.42,1.43,1.37,2.6,2.68,3.31,.84,.46,1.75,.68,2.64,.68,.99,0,1.96-.26,2.81-.76,.85-.49,1.59-1.22,2.09-2.14,1.3-2.4,.95-10.62,.91-11.55Zm-2.64,10.6c-.95,1.74-3.14,2.39-4.87,1.44-.84-.46-1.46-1.22-1.73-2.14-.27-.91-.17-1.88,.29-2.73,.66-1.22,4.22-3.68,7.03-5.41,.07,3.3-.06,7.62-.72,8.84Z"/><path class="cls-2" d="M66.52,207.82c-.95,1.74-3.14,2.39-4.87,1.44-.84-.46-1.46-1.22-1.73-2.14-.27-.91-.17-1.88,.29-2.73,.66-1.22,4.22-3.68,7.03-5.41,.07,3.3-.06,7.62-.72,8.84Z"/><path class="cls-1" d="M257.87,178.63c-.72,0-1.35,.4-1.69,.98H121.78c-.34-.58-.97-.98-1.69-.98-1.08,0-1.97,.88-1.97,1.97s.88,1.97,1.97,1.97c.72,0,1.35-.4,1.69-.98h134.4c.34,.58,.97,.98,1.69,.98,1.08,0,1.97-.88,1.97-1.97s-.88-1.97-1.97-1.97Z"/><path class="cls-1" d="M469.35,178.63c-.72,0-1.35,.4-1.69,.98h-134.4c-.34-.58-.97-.98-1.69-.98-1.08,0-1.97,.88-1.97,1.97s.88,1.97,1.97,1.97c.72,0,1.35-.4,1.69-.98h134.4c.34,.58,.97,.98,1.69,.98,1.08,0,1.97-.88,1.97-1.97s-.88-1.97-1.97-1.97Z"/><path class="cls-1" d="M470.43,204.35c-.72,0-1.35,.4-1.69,.98H121.78c-.34-.58-.97-.98-1.69-.98-1.08,0-1.97,.88-1.97,1.97s.88,1.97,1.97,1.97c.72,0,1.35-.4,1.69-.98H468.74c.34,.58,.97,.98,1.69,.98,1.08,0,1.97-.88,1.97-1.97s-.88-1.97-1.97-1.97Z"/><g><circle class="cls-1" cx="225.39" cy="167.44" r="1.63"/><circle class="cls-1" cx="238.57" cy="167.44" r="1.63"/><circle class="cls-1" cx="251.74" cy="167.44" r="1.63"/></g><g><circle class="cls-1" cx="252.1" cy="218.91" r="1.63"/><path class="cls-1" d="M264.4,217.28c-.9,0-1.63,.73-1.63,1.63s.73,1.63,1.63,1.63,1.63-.73,1.63-1.63-.73-1.63-1.63-1.63Z"/><circle class="cls-1" cx="276.71" cy="218.91" r="1.63"/><path class="cls-1" d="M289.01,217.28c-.9,0-1.63,.73-1.63,1.63s.73,1.63,1.63,1.63,1.63-.73,1.63-1.63-.73-1.63-1.63-1.63Z"/><circle class="cls-1" cx="301.31" cy="218.91" r="1.63"/><path class="cls-1" d="M313.62,217.28c-.9,0-1.63,.73-1.63,1.63s.73,1.63,1.63,1.63,1.63-.73,1.63-1.63-.73-1.63-1.63-1.63Z"/><circle class="cls-1" cx="325.92" cy="218.91" r="1.63"/><path class="cls-1" d="M338.22,217.28c-.9,0-1.63,.73-1.63,1.63s.73,1.63,1.63,1.63,1.63-.73,1.63-1.63-.73-1.63-1.63-1.63Z"/></g><g><circle class="cls-1" cx="365.21" cy="167.44" r="1.63"/><circle class="cls-1" cx="352.03" cy="167.44" r="1.63"/><circle class="cls-1" cx="338.86" cy="167.44" r="1.63"/></g><path class="cls-1" d="M213.81,83.13c-.25-.53-1.49-3.13-3.01-5.83-1.53-2.7-3.35-5.5-4.75-6.43-1.5-1-3.31-1.35-5.08-.99-1.77,.36-3.3,1.39-4.3,2.89-.99,1.51-1.35,3.32-.99,5.09,.36,1.77,1.39,3.29,2.9,4.29,2.81,1.87,13.14,2.33,14.31,2.37l1.61,.07-.69-1.46Zm-14.15-2.61c-1.07-.71-1.8-1.79-2.05-3.05-.26-1.26-.01-2.54,.7-3.61,.71-1.07,1.79-1.8,3.05-2.06,.32-.06,.64-.09,.96-.09,.94,0,1.85,.27,2.65,.8,1.57,1.04,4.42,6.08,6.35,9.97-4.33-.26-10.08-.92-11.66-1.96Z"/><path class="cls-3" d="M211.32,82.48c-4.33-.26-10.08-.92-11.66-1.96-1.07-.71-1.8-1.79-2.05-3.05-.26-1.26-.01-2.54,.7-3.61,.71-1.07,1.79-1.8,3.05-2.06,.32-.06,.64-.09,.96-.09,.94,0,1.85,.27,2.65,.8,1.57,1.04,4.42,6.08,6.35,9.97Z"/><path class="cls-1" d="M246.82,37.96c-.09-.58-.53-3.43-1.22-6.45s-1.62-6.22-2.7-7.52c-2.38-2.87-6.66-3.26-9.53-.87-2.86,2.38-3.26,6.66-.87,9.53,2.16,2.59,11.92,6,13.03,6.38l1.53,.52-.24-1.59Zm-12.81-6.57c-1.7-2.04-1.42-5.07,.62-6.77,.9-.74,1.98-1.11,3.07-1.11,1.38,0,2.75,.59,3.7,1.73,1.2,1.46,2.48,7.1,3.21,11.38-4.07-1.49-9.39-3.78-10.6-5.23Z"/><path class="cls-3" d="M244.61,36.62c-4.07-1.49-9.39-3.78-10.6-5.23-1.7-2.04-1.42-5.07,.62-6.77,.9-.74,1.98-1.11,3.07-1.11,1.38,0,2.75,.59,3.7,1.73,1.2,1.46,2.48,7.1,3.21,11.38Z"/><path class="cls-1" d="M394.53,72.77c-1-1.5-2.52-2.53-4.29-2.89s-3.58-.01-5.09,.99c-2.81,1.86-7.26,11.2-7.76,12.26l-.68,1.46,1.61-.07c1.17-.04,11.5-.5,14.31-2.37,1.51-1,2.53-2.52,2.89-4.29,.36-1.77,.01-3.58-.99-5.09Zm-.93,4.7c-.25,1.26-.98,2.34-2.05,3.05-1.58,1.04-7.33,1.7-11.66,1.96,.96-1.95,2.15-4.18,3.3-6.05,1.15-1.88,2.26-3.4,3.05-3.92,.79-.53,1.71-.8,2.64-.8,.32,0,.65,.03,.97,.09,1.25,.26,2.34,.99,3.05,2.06,.71,1.07,.96,2.35,.7,3.61Z"/><path class="cls-3" d="M393.6,77.47c-.25,1.26-.98,2.34-2.05,3.05-1.58,1.04-7.33,1.7-11.66,1.96,.96-1.95,2.15-4.18,3.3-6.05,1.15-1.88,2.26-3.4,3.05-3.92,.79-.53,1.71-.8,2.64-.8,.32,0,.65,.03,.97,.09,1.25,.26,2.34,.99,3.05,2.06,.71,1.07,.96,2.35,.7,3.61Z"/><path class="cls-1" d="M357.83,23.12c-1.26-1.05-2.79-1.57-4.32-1.57-1.94,0-3.87,.83-5.21,2.44-2.15,2.59-3.74,12.81-3.91,13.97l-.24,1.59,1.53-.52c1.11-.38,10.87-3.79,13.03-6.38,2.38-2.87,1.99-7.15-.88-9.53Zm-.63,8.27c-1.21,1.45-6.53,3.74-10.61,5.23,.73-4.28,2.01-9.92,3.22-11.38,1.7-2.03,4.73-2.31,6.77-.62,2.03,1.7,2.31,4.73,.62,6.77Z"/><path class="cls-3" d="M357.2,31.39c-1.21,1.45-6.53,3.74-10.61,5.23,.73-4.28,2.01-9.92,3.22-11.38,1.7-2.03,4.73-2.31,6.77-.62,2.03,1.7,2.31,4.73,.62,6.77Z"/></g><g><path class="cls-2" d="M86.43,267.27c-1.49,0-3.04,.87-4.65,2.61l-1.4-1.12c.43-.87,1.4-1.64,2.89-2.33,1.49-.68,3.13-1.02,4.93-1.02,5.65,0,8.47,2.55,8.47,7.63,0,2.17-.56,6.05-1.68,11.63-1.12,5.58-1.68,9.25-1.68,10.98,0,2.67,1.27,4,3.82,4,1.8,0,3.55-1.05,5.26-3.16,1.71-2.11,3.18-5.03,4.42-8.75l3.91-21.5c4.59,0,7.94-.19,10.05-.56l1.21-.28-6.24,35.18c1.86-.19,3.41-1.05,4.65-2.61l1.4,1.12c-1.86,2.23-4.19,3.35-6.98,3.35s-4.97-.68-6.52-2.05c-1.55-1.36-2.36-3.29-2.42-5.77-2.61,5.21-6.45,7.82-11.54,7.82-3.66,0-6.52-1.04-8.56-3.12-2.05-2.08-3.07-4.95-3.07-8.61,0-1.92,.59-5.63,1.77-11.12,1.18-5.49,1.83-9.6,1.95-12.33Z"/><path class="cls-2" d="M162.57,300.59c1.49,0,3.04-.87,4.65-2.61l1.4,1.12c-.43,.87-1.4,1.64-2.89,2.33s-3.13,1.02-4.93,1.02c-5.65,0-8.47-2.54-8.47-7.63,0-2.17,.56-6.05,1.68-11.63s1.68-9.24,1.68-10.98c0-2.67-1.27-4-3.82-4-3.85,0-7.07,4.93-9.68,14.8l-3.35,18.61h-11.17l6.14-34.34c-1.86,.19-3.41,1.06-4.65,2.61l-1.4-1.12c1.86-2.23,4.2-3.35,7.03-3.35s5.01,.71,6.56,2.14c1.55,1.43,2.33,3.44,2.33,6.05v.28c2.42-5.65,6.08-8.47,10.98-8.47,3.47,0,6.22,.95,8.24,2.84,2.02,1.89,3.12,4.55,3.31,7.96,1.18-3.41,2.67-6.06,4.47-7.96,1.8-1.89,4.41-2.84,7.82-2.84s6.14,1.04,8.19,3.12c2.05,2.08,3.07,4.95,3.07,8.61,0,1.92-.59,5.63-1.77,11.12-1.18,5.49-1.83,9.6-1.95,12.33,1.49,0,3.04-.87,4.65-2.61l1.4,1.12c-.43,.87-1.4,1.64-2.89,2.33-1.49,.68-3.13,1.02-4.93,1.02-5.65,0-8.47-2.54-8.47-7.63,0-2.17,.56-6.05,1.68-11.63s1.68-9.24,1.68-10.98c0-2.67-1.27-4-3.82-4-4.47,0-8.07,6.64-10.8,19.92-1.18,5.65-1.83,9.8-1.95,12.47Z"/><path class="cls-2" d="M216.55,265.41c7.88,0,11.82,3.13,11.82,9.4,0,3.91-1.85,6.87-5.54,8.89-3.69,2.02-8.95,3.06-15.78,3.12-.13,2.23-.19,4-.19,5.3,0,2.79,.64,4.86,1.91,6.19,1.27,1.34,2.87,2,4.79,2s3.68-.37,5.26-1.12,2.84-1.63,3.77-2.65c.93-1.02,1.74-2.09,2.42-3.21,1.24-2.05,1.86-3.35,1.86-3.91l1.68,.74c-.19,.99-.74,2.31-1.68,3.96-.93,1.64-1.95,2.99-3.07,4.05-1.12,1.06-2.76,2.03-4.93,2.93-2.17,.9-4.59,1.35-7.26,1.35-5.03,0-8.83-1.19-11.4-3.58-2.58-2.39-3.86-5.66-3.86-9.82,0-7.38,1.83-13.17,5.49-17.36,3.66-4.19,8.56-6.28,14.71-6.28Zm7.68,4.33c-1.21-1.33-3.01-2-5.4-2s-4.72,1.43-6.98,4.28c-2.27,2.85-3.77,7.07-4.51,12.66,12.47-.06,18.71-3.35,18.71-9.87,0-2.05-.6-3.74-1.81-5.07Z"/><path class="cls-2" d="M239.16,267.27c-1.49,0-3.04,.87-4.65,2.61l-1.4-1.12c.43-.87,1.4-1.64,2.89-2.33,1.49-.68,3.13-1.02,4.93-1.02,5.65,0,8.47,2.55,8.47,7.63,0,2.17-.56,6.05-1.68,11.63-1.12,5.58-1.68,9.25-1.68,10.98,0,2.67,1.27,4,3.82,4,1.8,0,3.55-1.05,5.26-3.16,1.71-2.11,3.18-5.03,4.42-8.75l3.91-21.5c4.59,0,7.94-.19,10.05-.56l1.21-.28-6.24,35.18c1.86-.19,3.41-1.05,4.65-2.61l1.4,1.12c-1.86,2.23-4.19,3.35-6.98,3.35s-4.97-.68-6.52-2.05c-1.55-1.36-2.36-3.29-2.42-5.77-2.6,5.21-6.45,7.82-11.54,7.82-3.66,0-6.52-1.04-8.56-3.12-2.05-2.08-3.07-4.95-3.07-8.61,0-1.92,.59-5.63,1.77-11.12,1.18-5.49,1.83-9.6,1.95-12.33Z"/><path class="cls-2" d="M280.4,268.76c1.86-2.23,4.2-3.35,7.03-3.35s5.01,.71,6.56,2.14c1.55,1.43,2.33,3.44,2.33,6.05v.56c2.79-5.83,6.42-8.75,10.89-8.75,4.78,0,7.17,2.48,7.17,7.45,0,2.05-.68,4.22-2.05,6.52-1.37,2.3-2.73,4.48-4.1,6.56-1.37,2.08-2.05,3.92-2.05,5.54h-2.23c0-2.3,1.33-5.4,4-9.31,2.67-3.91,4-6.93,4-9.07s-.42-3.6-1.26-4.37c-.84-.77-2.08-1.16-3.72-1.16s-3.26,.71-4.84,2.14c-1.58,1.43-2.9,3.23-3.96,5.4-1.68,3.23-2.79,5.86-3.35,7.91v.09l-3.35,18.52h-11.17l6.14-34.34c-1.86,.19-3.41,1.06-4.65,2.61l-1.4-1.12Z"/><path class="cls-2" d="M368.44,302.46c-5.46,0-8.44-2.33-8.94-6.98-2.73,4.65-6.2,6.98-10.42,6.98s-7.45-1.19-9.68-3.58c-2.23-2.39-3.35-5.66-3.35-9.82,0-7.32,1.74-13.09,5.21-17.31,3.47-4.22,7.97-6.33,13.5-6.33,3.16,0,5.61,.96,7.35,2.89,.74,.99,1.21,1.74,1.4,2.23l5.03-27.36c-1.86,.19-3.41,1.06-4.65,2.61l-1.4-1.12c1.86-2.23,4.2-3.35,7.03-3.35s5.01,.71,6.56,2.14c1.55,1.43,2.33,3.44,2.33,6.05,0,.5-.06,1.3-.19,2.42-3.04,17.07-5.99,33.29-8.84,48.68,1.86-.19,3.41-1.05,4.65-2.61l1.4,1.12c-1.86,2.23-4.19,3.35-6.98,3.35Zm-20.99-3.72c.59,1.06,1.52,1.58,2.79,1.58s2.5-.43,3.68-1.3c1.18-.87,2.17-1.98,2.98-3.35,1.49-2.3,2.54-4.25,3.16-5.86l2.7-14.71c-.13-1.99-.78-3.8-1.95-5.45-1.18-1.64-3.2-2.47-6.05-2.47-1.99,0-3.85,2.92-5.58,8.75-1.74,5.83-2.61,11.48-2.61,16.94,0,2.85,.29,4.81,.88,5.86Z"/><path class="cls-2" d="M386.69,267.27c-1.49,0-3.04,.87-4.65,2.61l-1.4-1.12c.43-.87,1.4-1.64,2.89-2.33,1.49-.68,3.13-1.02,4.93-1.02,5.65,0,8.47,2.55,8.47,7.63,0,2.17-.56,6.05-1.68,11.63-1.12,5.58-1.68,9.25-1.68,10.98,0,2.67,1.27,4,3.82,4,1.8,0,3.55-1.05,5.26-3.16,1.71-2.11,3.18-5.03,4.42-8.75l3.91-21.5c4.59,0,7.94-.19,10.05-.56l1.21-.28-6.24,35.18c1.86-.19,3.41-1.05,4.65-2.61l1.4,1.12c-1.86,2.23-4.19,3.35-6.98,3.35s-4.97-.68-6.52-2.05c-1.55-1.36-2.36-3.29-2.42-5.77-2.6,5.21-6.45,7.82-11.54,7.82-3.66,0-6.52-1.04-8.56-3.12-2.05-2.08-3.07-4.95-3.07-8.61,0-1.92,.59-5.63,1.77-11.12,1.18-5.49,1.83-9.6,1.95-12.33Z"/><path class="cls-2" d="M453.42,266.25c4.59,0,8.01-.19,10.24-.56l1.21-.28c-.62,3.35-1.63,8.92-3.03,16.71-1.39,7.79-2.4,13.36-3.02,16.71-1.18,6.64-3.3,11.62-6.38,14.94-3.07,3.32-7.4,4.98-12.98,4.98-1.86,0-3.29-.28-4.28-.84l.65-1.77c1.06,.56,2.37,.84,3.96,.84s2.81-.57,3.68-1.72c.87-1.15,1.61-3.37,2.23-6.66,2.17-11.73,4.68-25.28,7.54-40.67h-4l.19-1.68h4Zm2.98-9.77c-1.3-1.3-1.95-2.89-1.95-4.75s.65-3.46,1.95-4.79c1.3-1.33,2.89-2,4.75-2s3.46,.67,4.79,2c1.33,1.34,2,2.93,2,4.79s-.67,3.44-2,4.75c-1.34,1.3-2.93,1.95-4.79,1.95s-3.44-.65-4.75-1.95Z"/><path class="cls-2" d="M472.22,298.87c-2.48-2.39-3.72-5.4-3.72-9.03s.33-6.73,.98-9.31c.65-2.57,1.72-5.06,3.21-7.45,1.49-2.39,3.74-4.27,6.75-5.63,3.01-1.36,6.76-2.05,11.26-2.05s8.01,1.2,10.52,3.58c2.51,2.39,3.77,5.66,3.77,9.82,0,7.07-1.88,12.78-5.63,17.13-3.76,4.34-9.17,6.52-16.24,6.52-4.78,0-8.41-1.19-10.89-3.58Zm6.79-6c0,4.96,1.44,7.45,4.33,7.45s5.46-2.5,7.73-7.49c2.26-4.99,3.4-10.94,3.4-17.82,0-5.21-1.41-7.82-4.23-7.82s-5.4,2.37-7.73,7.12c-2.33,4.75-3.49,10.94-3.49,18.57Z"/><path class="cls-2" d="M515.31,267.27c-1.49,0-3.04,.87-4.65,2.61l-1.4-1.12c.43-.87,1.4-1.64,2.89-2.33,1.49-.68,3.13-1.02,4.93-1.02,5.65,0,8.47,2.55,8.47,7.63,0,2.17-.56,6.05-1.68,11.63-1.12,5.58-1.68,9.25-1.68,10.98,0,2.67,1.27,4,3.82,4,1.8,0,3.55-1.05,5.26-3.16,1.71-2.11,3.18-5.03,4.42-8.75l3.91-21.5c4.59,0,7.94-.19,10.05-.56l1.21-.28-6.24,35.18c1.86-.19,3.41-1.05,4.65-2.61l1.4,1.12c-1.86,2.23-4.19,3.35-6.98,3.35s-4.97-.68-6.52-2.05c-1.55-1.36-2.36-3.29-2.42-5.77-2.6,5.21-6.45,7.82-11.54,7.82-3.66,0-6.52-1.04-8.56-3.12-2.05-2.08-3.07-4.95-3.07-8.61,0-1.92,.59-5.63,1.77-11.12,1.18-5.49,1.83-9.6,1.95-12.33Z"/><path class="cls-2" d="M556.54,268.76c1.86-2.23,4.2-3.35,7.03-3.35s5.01,.71,6.56,2.14c1.55,1.43,2.33,3.44,2.33,6.05v.56c2.79-5.83,6.42-8.75,10.89-8.75,4.78,0,7.17,2.48,7.17,7.45,0,2.05-.68,4.22-2.05,6.52-1.37,2.3-2.73,4.48-4.1,6.56-1.37,2.08-2.05,3.92-2.05,5.54h-2.23c0-2.3,1.33-5.4,4-9.31,2.67-3.91,4-6.93,4-9.07s-.42-3.6-1.26-4.37c-.84-.77-2.08-1.16-3.72-1.16s-3.26,.71-4.84,2.14c-1.58,1.43-2.9,3.23-3.96,5.4-1.68,3.23-2.79,5.86-3.35,7.91v.09l-3.35,18.52h-11.17l6.14-34.34c-1.86,.19-3.41,1.06-4.65,2.61l-1.4-1.12Z"/><path class="cls-2" d="M12.6,272.34c5.37-3.24,11.58-4.72,18.34-4.91,1.48-7.32,2.04-14.91,2.04-21.12,0-5-.37-8.71-.74-11.39,1.3-1.11,5.65-3.06,7.6-3.06s2.96,1.85,2.96,5.28c0,4.45-1.76,17.32-5.28,30.48,5.46,.37,10.84,1.3,14.36,2.04,1.2-9.82,3.8-22.79,6.02-34.74,3.24-1.95,6.48-3.06,8.06-3.06,1.11,0,1.85,.56,1.85,1.67s-.74,3.8-1.94,9.82c-2.13,10.65-5.74,31.49-5.74,42.98,0,5.84,.93,12.5,4.17,12.5,2.04,0,5.63-2.86,8.4-10.64l1.39,1.12c-3.7,10.65-8.03,14.71-12.94,14.71-6.67,0-10.28-7.32-10.28-20.47,0-2.96,.18-6.67,.55-10.28-4.26-.37-11.3-.65-15.28-.65-.84,2.78-2.41,7.13-3.43,9.54-5.65,13.71-12.87,20.66-20.66,20.66-6.3,0-12.04-4.54-12.04-11.95s5.28-14.17,12.6-18.53Zm12.23,13.52c2.22-3.98,3.7-8.34,5-12.97-6.3,.46-11.67,1.76-15.84,3.8-5.83,2.87-9.63,7.22-9.63,12.23,0,4.63,3.43,7.78,7.32,7.78s9.08-3.43,13.15-10.84Z"/></g></g></g></svg>